<svg width="30" height="30" viewBox="0 0 30 30" fill="none" xmlns="http://www.w3.org/2000/svg">
<g clip-path="url(#clip0)">
<path d="M29.614 27.4589L27.5912 24.3813L28.6744 24.0846C29.3212 23.9075 29.4403 23.0084 28.8613 22.6692L25.8184 20.8867V2.16862C25.8184 0.972853 24.8456 0 23.6499 0H2.4274C1.23164 0 0.258789 0.972853 0.258789 2.16862V22.0302C0.258789 23.2259 1.23158 24.1987 2.42735 24.1987H10.9316C11.2553 24.1987 11.5176 23.9364 11.5176 23.6128C11.5176 23.2891 11.2553 23.0268 10.9316 23.0268H2.42735C1.87787 23.0268 1.43076 22.5797 1.43076 22.0302V5.24797H24.6465V20.2002L22.5777 18.9884C22.2858 18.8174 21.983 18.7139 21.6582 18.898C21.3881 19.0511 21.2322 19.3535 21.2703 19.6649L21.6824 23.0268H16.0651C15.7415 23.0268 15.4791 23.2892 15.4791 23.6128C15.4791 23.9365 15.7415 24.1988 16.0651 24.1988H21.826L22.1771 27.0623C22.2587 27.7278 23.131 27.9762 23.5505 27.4522L24.2526 26.5756L26.2753 29.6533C26.5068 30.0056 26.9946 30.1074 27.348 29.8752L29.3922 28.5316C29.749 28.297 29.8485 27.8159 29.614 27.4589ZM1.43076 2.16862C1.43076 1.61908 1.87787 1.17197 2.4274 1.17197H23.6499C24.1994 1.17197 24.6465 1.61908 24.6465 2.16862V4.07576H1.43076V2.16862ZM27.0363 28.6775L24.9314 25.4748C24.6472 25.0423 24.0036 25.0114 23.6796 25.4161L23.2254 25.9831L22.5313 20.3195L27.4548 23.2035L26.7541 23.3954C26.2553 23.532 26.0265 24.1342 26.3114 24.5679L28.4163 27.7706L27.0363 28.6775Z" fill="#FBB70E"/>
<path d="M5.42266 12.7673H9.35485C9.67849 12.7673 9.94084 12.5049 9.94084 12.1813V8.26445C9.94084 7.94081 9.67849 7.67847 9.35485 7.67847H5.42266C5.09902 7.67847 4.83667 7.94081 4.83667 8.26445V12.1813C4.83667 12.5049 5.09902 12.7673 5.42266 12.7673ZM6.00864 8.8505H8.76887V11.5954H6.00864V8.8505Z" fill="#FBB70E"/>
<path d="M12.993 8.85043H20.6653C20.9889 8.85043 21.2513 8.58809 21.2513 8.26445C21.2513 7.94081 20.9889 7.67847 20.6653 7.67847H12.993C12.6693 7.67847 12.407 7.94081 12.407 8.26445C12.407 8.58809 12.6694 8.85043 12.993 8.85043Z" fill="#FBB70E"/>
<path d="M12.993 12.5521H20.6653C20.9889 12.5521 21.2513 12.2897 21.2513 11.9661C21.2513 11.6425 20.9889 11.3801 20.6653 11.3801H12.993C12.6693 11.3801 12.407 11.6425 12.407 11.9661C12.407 12.2897 12.6694 12.5521 12.993 12.5521Z" fill="#FBB70E"/>
<path d="M5.42266 16.2537H20.665C20.9887 16.2537 21.251 15.9914 21.251 15.6678C21.251 15.3441 20.9887 15.0818 20.665 15.0818H5.42266C5.09902 15.0818 4.83667 15.3441 4.83667 15.6678C4.83667 15.9914 5.09902 16.2537 5.42266 16.2537Z" fill="#FBB70E"/>
<path d="M5.42266 19.9554H18.0838C18.4074 19.9554 18.6697 19.6931 18.6697 19.3694C18.6697 19.0458 18.4074 18.7834 18.0838 18.7834H5.42266C5.09902 18.7834 4.83667 19.0458 4.83667 19.3694C4.83667 19.6931 5.09902 19.9554 5.42266 19.9554Z" fill="#FBB70E"/>
<path d="M3.68522 2.45113C3.47825 1.94584 2.72544 1.99453 2.58011 2.51887C2.43965 3.02558 3.01609 3.44977 3.45892 3.16902C3.69571 3.01889 3.79316 2.71002 3.68522 2.45113Z" fill="#FBB70E"/>
<path d="M5.83239 2.4511C5.71132 2.15559 5.36143 2.01214 5.06709 2.13409C4.77216 2.25621 4.62789 2.60446 4.75007 2.89938C4.87225 3.19437 5.22074 3.33805 5.51537 3.2164C5.80989 3.09475 5.95515 2.7455 5.83239 2.4511Z" fill="#FBB70E"/>
<path d="M7.98327 2.4511C7.8622 2.15559 7.51231 2.01214 7.21797 2.13409C6.92304 2.25621 6.77877 2.60446 6.90095 2.89938C7.02313 3.19437 7.37161 3.33805 7.66625 3.2164C7.96076 3.09475 8.10603 2.7455 7.98327 2.4511Z" fill="#FBB70E"/>
<path d="M14.0642 23.3886C13.9413 23.0937 13.5941 22.95 13.2989 23.0721C13.0038 23.1942 12.8601 23.5419 12.9819 23.8369C13.1037 24.1318 13.4525 24.2761 13.7471 24.1539C14.043 24.0311 14.1855 23.6844 14.0642 23.3886Z" fill="#FBB70E"/>
</g>
<defs>
<clipPath id="clip0">
<rect width="30" height="30" fill="white"/>
</clipPath>
</defs>
</svg>
