<svg width="30" height="30" viewBox="0 0 30 30" fill="none" xmlns="http://www.w3.org/2000/svg">
<path d="M20.5 0H9.5C8.12 0.001625 7.00163 1.12 7 2.5V27.5C7.00163 28.88 8.12 29.9984 9.5 30H20.5C21.88 29.9984 22.9984 28.88 23 27.5V2.5C22.9984 1.12 21.88 0.001625 20.5 0ZM13.013 29H9.5C8.67156 29 8 28.3284 8 27.5V26H13.013C12.3292 26.8831 12.3292 28.1169 13.013 29ZM15 29C14.1716 29 13.5 28.3284 13.5 27.5C13.5 26.6716 14.1716 26 15 26C15.8284 26 16.5 26.6716 16.5 27.5C16.5 28.3284 15.8284 29 15 29ZM22 27.5C22 28.3284 21.3284 29 20.5 29H16.987C17.6708 28.1169 17.6708 26.8831 16.987 26H22V27.5ZM22 25H8V5.5H22V25ZM22 4.5H8V2.5C8 1.67156 8.67156 1 9.5 1H20.5C21.3284 1 22 1.67156 22 2.5V4.5Z" fill="#FBB70E"/>
<path d="M16.5 2.5H11.5V3.5H16.5V2.5Z" fill="#FBB70E"/>
<path d="M13 10H11C10.1716 10 9.5 10.6716 9.5 11.5V13.5C9.5 14.3284 10.1716 15 11 15H13C13.8284 15 14.5 14.3284 14.5 13.5V11.5C14.5 10.6716 13.8284 10 13 10ZM13.5 13.5C13.5 13.7761 13.2761 14 13 14H11C10.7239 14 10.5 13.7761 10.5 13.5V11.5C10.5 11.2239 10.7239 11 11 11H13C13.2761 11 13.5 11.2239 13.5 11.5V13.5Z" fill="#FBB70E"/>
<path d="M19 10H17C16.1716 10 15.5 10.6716 15.5 11.5V13.5C15.5 14.3284 16.1716 15 17 15H19C19.8284 15 20.5 14.3284 20.5 13.5V11.5C20.5 10.6716 19.8284 10 19 10ZM19.5 13.5C19.5 13.7761 19.2761 14 19 14H17C16.7239 14 16.5 13.7761 16.5 13.5V11.5C16.5 11.2239 16.7239 11 17 11H19C19.2761 11 19.5 11.2239 19.5 11.5V13.5Z" fill="#FBB70E"/>
<path d="M13 16H11C10.1716 16 9.5 16.6716 9.5 17.5V19.5C9.5 20.3284 10.1716 21 11 21H13C13.8284 21 14.5 20.3284 14.5 19.5V17.5C14.5 16.6716 13.8284 16 13 16ZM13.5 19.5C13.5 19.7761 13.2761 20 13 20H11C10.7239 20 10.5 19.7761 10.5 19.5V17.5C10.5 17.2239 10.7239 17 11 17H13C13.2761 17 13.5 17.2239 13.5 17.5V19.5Z" fill="#FBB70E"/>
<path d="M19 16H17C16.1716 16 15.5 16.6716 15.5 17.5V19.5C15.5 20.3284 16.1716 21 17 21H19C19.8284 21 20.5 20.3284 20.5 19.5V17.5C20.5 16.6716 19.8284 16 19 16ZM19.5 19.5C19.5 19.7761 19.2761 20 19 20H17C16.7239 20 16.5 19.7761 16.5 19.5V17.5C16.5 17.2239 16.7239 17 17 17H19C19.2761 17 19.5 17.2239 19.5 17.5V19.5Z" fill="#FBB70E"/>
<path d="M11 6.5H9.5C9.22387 6.5 9 6.72387 9 7V8.5C9 8.77612 9.22387 9 9.5 9C9.77613 9 10 8.77612 10 8.5V7.5H11C11.2761 7.5 11.5 7.27613 11.5 7C11.5 6.72387 11.2761 6.5 11 6.5Z" fill="#FBB70E"/>
<path d="M14 6.5H13C12.7239 6.5 12.5 6.72387 12.5 7C12.5 7.27613 12.7239 7.5 13 7.5H14C14.2761 7.5 14.5 7.27613 14.5 7C14.5 6.72387 14.2761 6.5 14 6.5Z" fill="#FBB70E"/>
<path d="M18.5 2.5H17.5V3.5H18.5V2.5Z" fill="#FBB70E"/>
</svg>
