<svg width="30" height="30" viewBox="0 0 30 30" fill="none" xmlns="http://www.w3.org/2000/svg">
<path d="M18.5156 20.2734C18.1922 20.2734 17.9297 20.536 17.9297 20.8594C17.9297 21.1828 18.1922 21.4453 18.5156 21.4453C18.839 21.4453 19.1016 21.1828 19.1016 20.8594C19.1016 20.536 18.839 20.2734 18.5156 20.2734Z" fill="#FBB70E"/>
<path d="M27.0703 0H2.92969C1.31424 0 0 1.31424 0 2.92969V20.8594C0 22.4748 1.31424 23.7891 2.92969 23.7891H12.0703V26.4844H11.4844C10.7021 26.4844 9.96666 26.7892 9.41299 27.3427C8.85956 27.8963 8.55469 28.6317 8.55469 29.4141C8.55469 29.7377 8.81699 30 9.14062 30H20.8594C21.183 30 21.4453 29.7377 21.4453 29.4141C21.4453 27.7986 20.1311 26.4844 18.5156 26.4844H17.9297V23.7891H27.0703C28.6858 23.7891 30 22.4748 30 20.8594V2.92969C30 1.31424 28.6858 0 27.0703 0ZM2.92969 1.17188H27.0703C28.0396 1.17188 28.8281 1.96037 28.8281 2.92969V17.9297H26.1328V4.45312C26.1328 4.12949 25.8705 3.86719 25.5469 3.86719H20.8594C20.5357 3.86719 20.2734 4.12949 20.2734 4.45312V17.9297H17.3405C17.3344 17.3236 17.3186 16.7262 17.2934 16.1467C17.1909 13.7604 16.9572 12.1619 16.8356 11.4587C18.0446 10.5686 18.3746 8.91884 17.6356 7.6371L15.6047 4.11964C15.4999 3.93837 15.3065 3.82668 15.0973 3.82668C14.8878 3.82668 14.6944 3.93837 14.5898 4.11964L12.5581 7.63733C11.8613 8.84583 12.1083 10.4111 13.2028 11.3349C13.076 12.036 12.8201 13.6917 12.7089 16.1456C12.6826 16.7313 12.6659 17.3291 12.6595 17.9297H9.72656V9.14062C9.72656 9.0477 9.70459 8.96301 9.66866 8.88771C9.66705 8.88474 9.66614 8.88153 9.66476 8.87856L7.32101 4.19106C7.22168 3.99261 7.01889 3.86719 6.79688 3.86719C6.57486 3.86719 6.37207 3.99261 6.27274 4.19106L3.92899 8.87856C3.92761 8.88153 3.9267 8.88474 3.92532 8.88771C3.8887 8.9637 3.86719 9.04976 3.86719 9.14062V17.9297H1.17188V2.92969C1.17188 1.96037 1.96037 1.17188 2.92969 1.17188ZM21.4453 17.9297V5.03906H24.9609V6.21094H24.375C24.0514 6.21094 23.7891 6.47324 23.7891 6.79688C23.7891 7.12051 24.0514 7.38281 24.375 7.38281H24.9609V9.14062H24.375C24.0514 9.14062 23.7891 9.40292 23.7891 9.72656C23.7891 10.0502 24.0514 10.3125 24.375 10.3125H24.9609V12.0703H24.375C24.0514 12.0703 23.7891 12.3326 23.7891 12.6562C23.7891 12.9799 24.0514 13.2422 24.375 13.2422H24.9609V15.5859H24.375C24.0514 15.5859 23.7891 15.8482 23.7891 16.1719C23.7891 16.4955 24.0514 16.7578 24.375 16.7578H24.9609V17.9297H21.4453ZM15.0973 12.0298C15.3101 12.0298 15.5221 12.0053 15.7294 11.9595C15.8382 12.6565 15.9979 13.8897 16.0925 15.5859H13.9114C14.0105 13.8908 14.1779 12.6384 14.2934 11.9179C14.553 11.9918 14.8233 12.0298 15.0973 12.0298ZM15.0973 10.8579C13.7581 10.8579 12.8945 9.40041 13.5732 8.22304L15.0973 5.58449L16.6205 8.22281C17.2966 9.39537 16.4449 10.8579 15.0973 10.8579ZM13.8577 16.7578H16.144C16.1563 17.1428 16.1648 17.5344 16.1689 17.9297H13.8313C13.8357 17.5369 13.8446 17.1453 13.8577 16.7578ZM7.38281 17.9297V9.72656H8.55469V17.9297H7.38281ZM5.03906 17.9297V9.72656H6.21094V17.9297H5.03906ZM5.40115 8.55469L6.79688 5.76324L8.1926 8.55469H5.40115ZM20.173 28.8281H9.82635C9.91241 28.5839 10.0529 28.3601 10.2415 28.1712C10.5739 27.8391 11.0152 27.6562 11.4844 27.6562H18.5156C19.2796 27.6562 19.9313 28.1461 20.173 28.8281ZM16.7578 26.4844H13.2422V23.7891H16.7578V26.4844ZM27.0703 22.6172H2.92969C1.96037 22.6172 1.17188 21.8287 1.17188 20.8594V19.1016H28.8281V20.8594C28.8281 21.8287 28.0396 22.6172 27.0703 22.6172Z" fill="#FBB70E"/>
<path d="M16.1719 20.2734H12.6562C12.3326 20.2734 12.0703 20.5357 12.0703 20.8594C12.0703 21.183 12.3326 21.4453 12.6562 21.4453H16.1719C16.4955 21.4453 16.7578 21.183 16.7578 20.8594C16.7578 20.5357 16.4955 20.2734 16.1719 20.2734Z" fill="#FBB70E"/>
</svg>
