<svg width="30" height="30" viewBox="0 0 30 30" fill="none" xmlns="http://www.w3.org/2000/svg">
<path d="M12.1875 11.7188C9.34453 11.7188 7.03125 14.032 7.03125 16.875C7.03125 19.718 9.34453 22.0312 12.1875 22.0312C15.0305 22.0312 17.3438 19.718 17.3438 16.875C17.3438 14.032 15.0305 11.7188 12.1875 11.7188ZM12.1875 21.0938C9.86156 21.0938 7.96875 19.2014 7.96875 16.875C7.96875 14.5486 9.86156 12.6562 12.1875 12.6562C14.5134 12.6562 16.4062 14.5486 16.4062 16.875C16.4062 19.2014 14.5134 21.0938 12.1875 21.0938Z" fill="#FBB70E"/>
<path d="M22.0312 18.2812V20.5631L25.4545 18.2812H26.25C27.5423 18.2812 28.5938 17.2298 28.5938 15.9375V10.3125C28.5938 9.02016 27.5423 7.96875 26.25 7.96875H23.7422C23.355 6.87797 22.3158 6.09375 21.0938 6.09375C19.8717 6.09375 18.8325 6.87797 18.4453 7.96875H15.9375C15.7772 7.96875 15.6202 7.98516 15.4688 8.01609V4.6875C15.4688 3.39516 14.4173 2.34375 13.125 2.34375H10.6172C10.23 1.25297 9.19078 0.46875 7.96875 0.46875C6.74672 0.46875 5.7075 1.25297 5.32031 2.34375H2.8125C1.52016 2.34375 0.46875 3.39516 0.46875 4.6875V10.3125C0.46875 11.6048 1.52016 12.6562 2.8125 12.6562H6.57562C5.68875 13.8328 5.15625 15.2911 5.15625 16.875C5.15625 18.285 5.57719 19.5966 6.29484 20.6986L5.625 21.3684L5.15625 20.8997L1.09172 24.9647C0.69 25.3659 0.46875 25.9003 0.46875 26.468C0.46875 27.6403 1.42266 28.5938 2.595 28.5938C3.16312 28.5938 3.69703 28.3725 4.09828 27.9713L8.16281 23.9062L7.69406 23.4375L8.36391 22.7677C9.46594 23.4853 10.7775 23.9062 12.1875 23.9062C15.5831 23.9062 18.4237 21.487 19.0772 18.2812H22.0312ZM23.9062 8.90625H26.25C27.0253 8.90625 27.6562 9.53719 27.6562 10.3125V15.9375C27.6562 16.7128 27.0253 17.3438 26.25 17.3438H25.1705L22.9688 18.8119V17.3438H19.1948C19.2052 17.1881 19.2188 17.0334 19.2188 16.875C19.2188 16.7166 19.2052 16.5619 19.1948 16.4062H25.7812V15.4688C25.7812 13.4967 24.555 11.8083 22.8263 11.1173C23.4825 10.6017 23.9062 9.80344 23.9062 8.90625ZM22.4644 15.4688L22.178 11.88C23.7183 12.3464 24.8438 13.778 24.8438 15.4688H22.4644ZM21.2245 11.7253L21.5236 15.4688H20.6639L20.9625 11.7267C21.0066 11.7253 21.0497 11.7188 21.0938 11.7188C21.1378 11.7188 21.1809 11.7239 21.2245 11.7253ZM19.7231 15.4688H19.0767C18.907 14.6353 18.5831 13.8591 18.1463 13.1606C18.6267 12.5475 19.2773 12.1069 20.0091 11.8856L19.7231 15.4688ZM21.0938 7.03125C22.1278 7.03125 22.9688 7.87219 22.9688 8.90625C22.9688 9.94031 22.1278 10.7812 21.0938 10.7812C20.0597 10.7812 19.2188 9.94031 19.2188 8.90625C19.2188 7.87219 20.0597 7.03125 21.0938 7.03125ZM18.2812 8.90625C18.2812 9.80297 18.7045 10.6008 19.3598 11.1164C18.6811 11.3869 18.0694 11.8125 17.5786 12.3694C16.7798 11.4155 15.7312 10.6814 14.5369 10.2562C14.5673 9.50719 15.1814 8.90625 15.9375 8.90625H18.2812ZM10.7812 3.28125H13.125C13.9003 3.28125 14.5312 3.91219 14.5312 4.6875V8.44969C14.0466 8.81672 13.7133 9.36328 13.6261 9.99328C13.3106 9.92719 12.9858 9.88969 12.6562 9.86812V9.84375C12.6562 7.87172 11.43 6.18328 9.70125 5.49234C10.3575 4.97672 10.7812 4.17844 10.7812 3.28125ZM4.21875 9.84375C4.21875 8.15297 5.34422 6.72141 6.885 6.255L6.59812 9.84375H4.21875ZM7.83797 6.10031C7.88156 6.09891 7.92469 6.09375 7.96875 6.09375C8.01281 6.09375 8.05594 6.09891 8.09953 6.10031L8.39859 9.84375H7.53891L7.83797 6.10031ZM9.0525 6.255C10.5933 6.72141 11.7188 8.15297 11.7188 9.84375H9.33937L9.0525 6.255ZM7.96875 1.40625C9.00281 1.40625 9.84375 2.24719 9.84375 3.28125C9.84375 4.31531 9.00281 5.15625 7.96875 5.15625C6.93469 5.15625 6.09375 4.31531 6.09375 3.28125C6.09375 2.24719 6.93469 1.40625 7.96875 1.40625ZM1.40625 10.3125V4.6875C1.40625 3.91219 2.03719 3.28125 2.8125 3.28125H5.15625C5.15625 4.17844 5.58 4.97672 6.23625 5.49234C4.5075 6.18328 3.28125 7.87172 3.28125 9.84375V10.7812H8.69484C8.23547 11.0456 7.81031 11.3611 7.42359 11.7188H2.8125C2.03719 11.7188 1.40625 11.0878 1.40625 10.3125ZM3.43547 27.3084C3.21094 27.5325 2.91234 27.6562 2.595 27.6562C1.93969 27.6562 1.40625 27.1228 1.40625 26.468C1.40625 26.1506 1.53 25.8525 1.75453 25.6275L5.15625 22.2253L6.83719 23.9062L3.43547 27.3084ZM7.03125 22.7747L6.28781 22.0312L6.86391 21.4552C7.09312 21.7209 7.34156 21.9694 7.60734 22.1986L7.03125 22.7747ZM12.1875 22.9688C8.8275 22.9688 6.09375 20.235 6.09375 16.875C6.09375 13.515 8.8275 10.7812 12.1875 10.7812C15.5475 10.7812 18.2812 13.515 18.2812 16.875C18.2812 20.235 15.5475 22.9688 12.1875 22.9688Z" fill="#FBB70E"/>
<path d="M28.125 21.0938H19.6875C18.9122 21.0938 18.2812 21.7247 18.2812 22.5V28.125C18.2812 28.9003 18.9122 29.5312 19.6875 29.5312H28.125C28.9003 29.5312 29.5312 28.9003 29.5312 28.125V22.5C29.5312 21.7247 28.9003 21.0938 28.125 21.0938ZM28.5938 28.125C28.5938 28.3837 28.3833 28.5938 28.125 28.5938H19.6875C19.4292 28.5938 19.2188 28.3837 19.2188 28.125V22.5C19.2188 22.2413 19.4292 22.0312 19.6875 22.0312H28.125C28.3833 22.0312 28.5938 22.2413 28.5938 22.5V28.125Z" fill="#FBB70E"/>
<path d="M26.7188 23.9062H25.7812V26.7188H24.8438V24.8438H23.9062V26.7188H22.9688V25.7812H22.0312V26.7188H21.0938V22.9688H20.1562V27.6562H27.6562V26.7188H26.7188V23.9062Z" fill="#FBB70E"/>
<path d="M25.7812 9.84375H26.7188V10.7812H25.7812V9.84375Z" fill="#FBB70E"/>
<path d="M25.7812 11.7188H26.7188V12.6562H25.7812V11.7188Z" fill="#FBB70E"/>
<path d="M2.34375 4.21875H3.28125V5.15625H2.34375V4.21875Z" fill="#FBB70E"/>
<path d="M2.34375 6.09375H3.28125V7.03125H2.34375V6.09375Z" fill="#FBB70E"/>
</svg>
