<svg width="30" height="30" viewBox="0 0 30 30" fill="none" xmlns="http://www.w3.org/2000/svg">
<path d="M29.1211 0H0.878906C0.393516 0 0 0.393516 0 0.878906V22.0898C0 22.5752 0.393516 22.9688 0.878906 22.9688H10.6055V24.0347C10.6055 24.9009 9.90082 25.6055 9.03469 25.6055H7.96875C7.48336 25.6055 7.08984 25.999 7.08984 26.4844V29.1211C7.08984 29.6065 7.48336 30 7.96875 30H22.0312C22.5166 30 22.9102 29.6065 22.9102 29.1211V26.4844C22.9102 25.999 22.5166 25.6055 22.0312 25.6055H20.9653C20.0992 25.6055 19.3945 24.9009 19.3945 24.0347V22.9688H29.1211C29.6065 22.9688 30 22.5752 30 22.0898V0.878906C30 0.393516 29.6065 0 29.1211 0ZM28.2422 1.75781V15.8789H1.75781V1.75781H28.2422ZM20.9653 27.3633H21.1523V28.2422H8.84766V27.3633H9.03469C10.8701 27.3633 12.3633 25.8701 12.3633 24.0347V22.9688H17.6367V24.0347C17.6367 25.8701 19.1299 27.3633 20.9653 27.3633ZM1.75781 21.2109V17.6367H28.2422V21.2109C27.3795 21.2109 3.03639 21.2109 1.75781 21.2109Z" fill="#FBB70E"/>
<path d="M4.45312 14.1211H15.0586C15.544 14.1211 15.9375 13.7276 15.9375 13.2422V4.39453C15.9375 3.90914 15.544 3.51562 15.0586 3.51562H4.45312C3.96773 3.51562 3.57422 3.90914 3.57422 4.39453V13.2422C3.57422 13.7276 3.96773 14.1211 4.45312 14.1211ZM5.33203 11.8484L7.99805 9.1824L11.1789 12.3633H5.33203V11.8484ZM13.6648 12.3633L11.5554 10.2539L12.6562 9.15311L14.1797 10.6765V12.3633H13.6648ZM14.1797 5.27344V8.19064L13.2777 7.28865C12.9345 6.94547 12.378 6.94547 12.0347 7.28865L10.3125 9.01096L8.61949 7.31795C8.27631 6.97477 7.71979 6.97477 7.37654 7.31795L5.33203 9.36252V5.27344H14.1797Z" fill="#FBB70E"/>
<path d="M18.5156 10.4883H25.5469C26.0323 10.4883 26.4258 10.0948 26.4258 9.60938V4.33594C26.4258 3.85055 26.0323 3.45703 25.5469 3.45703H18.5156C18.0302 3.45703 17.6367 3.85055 17.6367 4.33594V9.60938C17.6367 10.0948 18.0302 10.4883 18.5156 10.4883ZM21.2419 8.73047L24.668 6.24949V8.73047H21.2419ZM23.0996 5.21484L19.3945 7.89785V5.21484H23.0996Z" fill="#FBB70E"/>
<path d="M18.5156 14.1211H25.5469C26.0323 14.1211 26.4258 13.7276 26.4258 13.2422C26.4258 12.7568 26.0323 12.3633 25.5469 12.3633H18.5156C18.0302 12.3633 17.6367 12.7568 17.6367 13.2422C17.6367 13.7276 18.0302 14.1211 18.5156 14.1211Z" fill="#FBB70E"/>
</svg>
