<svg width="30" height="30" viewBox="0 0 30 30" fill="none" xmlns="http://www.w3.org/2000/svg">
<g clip-path="url(#clip0)">
<path d="M27.8125 7.5H2.1875C0.98125 7.5 0 6.51875 0 5.3125V2.1875C0 0.98125 0.98125 0 2.1875 0H27.8125C29.0187 0 30 0.98125 30 2.1875V5.3125C30 6.51875 29.0187 7.5 27.8125 7.5ZM2.1875 1.875C2.015 1.875 1.875 2.015 1.875 2.1875V5.3125C1.875 5.485 2.015 5.625 2.1875 5.625H27.8125C27.985 5.625 28.125 5.485 28.125 5.3125V2.1875C28.125 2.015 27.985 1.875 27.8125 1.875H2.1875Z" fill="#FBB70E"/>
<path d="M27.8127 30H12.1877C10.9815 30 10.0002 29.0187 10.0002 27.8125V12.1875C10.0002 10.9813 10.9815 10 12.1877 10H27.8127C29.019 10 30.0002 10.9813 30.0002 12.1875V27.8125C30.0002 29.0187 29.019 30 27.8127 30ZM12.1877 11.875C12.0152 11.875 11.8752 12.015 11.8752 12.1875V27.8125C11.8752 27.985 12.0152 28.125 12.1877 28.125H27.8127C27.9852 28.125 28.1252 27.985 28.1252 27.8125V12.1875C28.1252 12.015 27.9852 11.875 27.8127 11.875H12.1877Z" fill="#FBB70E"/>
<path d="M3.75 30C1.6825 30 0 28.3175 0 26.25C0 24.1825 1.6825 22.5 3.75 22.5C5.8175 22.5 7.5 24.1825 7.5 26.25C7.5 28.3175 5.8175 30 3.75 30ZM3.75 24.375C2.71625 24.375 1.875 25.2162 1.875 26.25C1.875 27.2838 2.71625 28.125 3.75 28.125C4.78375 28.125 5.625 27.2838 5.625 26.25C5.625 25.2162 4.78375 24.375 3.75 24.375Z" fill="#FBB70E"/>
<path d="M6.5625 16.25H0.9375C0.42 16.25 0 15.83 0 15.3125C0 14.795 0.42 14.375 0.9375 14.375H6.5625C7.08 14.375 7.5 14.795 7.5 15.3125C7.5 15.83 7.08 16.25 6.5625 16.25Z" fill="#FBB70E"/>
<path d="M6.5625 12.5H0.9375C0.42 12.5 0 12.08 0 11.5625C0 11.045 0.42 10.625 0.9375 10.625H6.5625C7.08 10.625 7.5 11.045 7.5 11.5625C7.5 12.08 7.08 12.5 6.5625 12.5Z" fill="#FBB70E"/>
<path d="M6.5625 20H0.9375C0.42 20 0 19.58 0 19.0625C0 18.545 0.42 18.125 0.9375 18.125H6.5625C7.08 18.125 7.5 18.545 7.5 19.0625C7.5 19.58 7.08 20 6.5625 20Z" fill="#FBB70E"/>
</g>
<defs>
<clipPath id="clip0">
<rect width="30" height="30" fill="white"/>
</clipPath>
</defs>
</svg>
